<svg xmlns="http://www.w3.org/2000/svg" width="600" height="187" viewBox="0 0 600 187">
  <defs>
    <style>
      .cls-1 {
        fill-rule: evenodd;
      }
    </style>
  </defs>
  <path class="cls-1" d="M126.727,98.566c-5.613-1.181-22.334-5.359-38.567,5.6a0.5,0.5,0,0,0-.051-0.018,44.973,44.973,0,0,1-4.959,2.778,39.246,39.246,0,0,1-32.818,0A43.869,43.869,0,0,1,36.994,97.28a46.591,46.591,0,0,1-9.04-13.949,43.105,43.105,0,0,1,0-33.241,45.139,45.139,0,0,1,9.04-13.949,44.594,44.594,0,0,1,13.337-9.562,39.248,39.248,0,0,1,32.818,0,44.6,44.6,0,0,1,13.34,9.562,45.147,45.147,0,0,1,9.038,13.949,43.084,43.084,0,0,1,0,33.241c-0.306.721-.662,1.405-1,2.1a90.6,90.6,0,0,1,25.88,1.323,65.328,65.328,0,0,0,3.075-20.089,64.5,64.5,0,0,0-5.276-25.879A67.183,67.183,0,0,0,92.685,5.263,64.764,64.764,0,0,0,66.654,0,64.329,64.329,0,0,0,40.8,5.263,67.162,67.162,0,0,0,5.276,40.789,64.454,64.454,0,0,0,0,66.668,64.242,64.242,0,0,0,5.276,92.632,67.394,67.394,0,0,0,40.8,128.069a64.24,64.24,0,0,0,25.853,5.264,64.675,64.675,0,0,0,26.03-5.264,72.04,72.04,0,0,0,6.774-3.415c0.249-.1.543-0.21,0.756-0.31,5.091-2.395,8.436-3.789,14.286-3.594,11.378,0.377,13.946,5.925,14.574,10.436h28.4C157.473,123.43,150.852,103.642,126.727,98.566ZM251,35.855H227.156V89.521h0.021a20.095,20.095,0,0,1-40.189,0h0.024V35.855H163.161V89.521a43.921,43.921,0,0,0,87.842,0h0V35.855Zm325.148,0V67.884h0.011a19.883,19.883,0,0,1-6.752,14.84l0.052,0.006c12.6,1.876,21.983,10.694,22.115,10.82a43.481,43.481,0,0,0,8.415-25.666H600V35.855H576.151ZM600,131.647c0-.041,0-0.08,0-0.12v-0.173h-0.008A43.5,43.5,0,0,0,586.11,99.739l0.026-.023c-3.7-3.34-11.847-11.185-30.061-11.838-11.072-.4-20.059-8.948-20.087-19.993h0.019V35.855H512.158v31.9a0.5,0.5,0,0,0-.006.075,43.835,43.835,0,0,0,42.592,43.746c0.274,0.011,1.523.054,1.62,0.051a20.038,20.038,0,0,1,19.781,19.745v11.774h0.023a0.26,0.26,0,0,1,0,.039,20.095,20.095,0,0,1-40.189,0c0-.041.013-6.062,0.013-6.1,0,0-23.837.079-23.841,0.12C509.291,166.814,531.819,187,556.077,187A43.868,43.868,0,0,0,600,143.188a0.3,0.3,0,0,0,0-.053V131.74C600,131.71,600,131.678,600,131.647ZM343.409,147.681a30.333,30.333,0,0,1-5.027,9.828,26.278,26.278,0,0,1-8.474,7.078,28.486,28.486,0,0,1-24.439,0A26.236,26.236,0,0,1,297,157.509a30.211,30.211,0,0,1-5.025-9.828,37.618,37.618,0,0,1-1.639-10.536H266.275a50.218,50.218,0,0,0,4.019,19.971,48.292,48.292,0,0,0,10.934,15.826,49.936,49.936,0,0,0,16.36,10.323,55.955,55.955,0,0,0,40.2,0,49.925,49.925,0,0,0,16.36-10.323,48.39,48.39,0,0,0,10.937-15.826,50.339,50.339,0,0,0,4.018-19.971H345.048A37.837,37.837,0,0,1,343.409,147.681Zm37.032-111.16c-35.355-.429-37.544,32.522-36.063,39.341h-0.1a36.419,36.419,0,0,1,.8,7.142,37.749,37.749,0,0,1-1.673,11.01,30.311,30.311,0,0,1-5.027,9.827,26.281,26.281,0,0,1-8.474,7.079,28.5,28.5,0,0,1-24.439,0A26.238,26.238,0,0,1,297,103.841a30.189,30.189,0,0,1-5.025-9.827A37.652,37.652,0,0,1,290.3,83a36.737,36.737,0,0,1,1.675-10.912A30.493,30.493,0,0,1,297,62.362a25.293,25.293,0,0,1,8.474-6.98,29.492,29.492,0,0,1,24.439,0,25.482,25.482,0,0,1,6.893,5.354c0.077-.337.1-0.694,0.184-1.029a36.744,36.744,0,0,1,6.308-13.662,28.86,28.86,0,0,1,4.034-4.277A50.415,50.415,0,0,0,337.789,37a58.855,58.855,0,0,0-40.2,0,48.222,48.222,0,0,0-16.36,10.024,47.543,47.543,0,0,0-10.934,15.63A49.743,49.743,0,0,0,266.254,83a50.419,50.419,0,0,0,4.04,20.445,48.288,48.288,0,0,0,10.934,15.825,49.936,49.936,0,0,0,16.36,10.323,55.941,55.941,0,0,0,40.2,0,49.925,49.925,0,0,0,16.36-10.323,48.386,48.386,0,0,0,10.937-15.825A50.519,50.519,0,0,0,369.126,83c0-1.289-.095-2.527-0.176-3.776l0.141,0.02V77.936a46.547,46.547,0,0,1,.591-7.275,21.8,21.8,0,0,1,2.268-6.882,13.357,13.357,0,0,1,4.828-5.11,15.221,15.221,0,0,1,7.671-1.9h11.245V36.508ZM497.273,62.18A44.581,44.581,0,0,0,487.742,46.3,39.443,39.443,0,0,0,473.3,36.7a49.9,49.9,0,0,0-18.177-3.235,53.042,53.042,0,0,0-19.748,3.627,46.084,46.084,0,0,0-26.331,26.068,53.882,53.882,0,0,0-3.832,20.679,52.945,52.945,0,0,0,3.832,20.683,43.7,43.7,0,0,0,10.61,15.384,47.717,47.717,0,0,0,16.015,9.705,57.726,57.726,0,0,0,20.24,3.431,53.744,53.744,0,0,0,36.322-13.372l-12.865-15.186c-2.055,2.109-7.652,5.546-8.718,6.113q-6.095,3.237-14.936,3.234a27.751,27.751,0,0,1-9.825-1.766,29.7,29.7,0,0,1-8.449-4.8,23.575,23.575,0,0,1-5.993-7.254,23.183,23.183,0,0,1-2.652-9.309,92.557,92.557,0,0,1,0-16.856,23.188,23.188,0,0,1,8.154-16.367A26.558,26.558,0,0,1,454.928,51.1a24.411,24.411,0,0,1,9.922,1.864,19.237,19.237,0,0,1,11,12.251,28.935,28.935,0,0,1,1.278,8.624H436.866V90.7h63.648a25.362,25.362,0,0,0,.2-3.137V84.43A65.424,65.424,0,0,0,497.273,62.18Z"/>
</svg>
