<?xml version="1.0" encoding="utf-8"?>
<!-- Generator: Adobe Illustrator 25.4.1, SVG Export Plug-In . SVG Version: 6.00 Build 0)  -->
<svg version="1.1" id="Layer_1" xmlns="http://www.w3.org/2000/svg" xmlns:xlink="http://www.w3.org/1999/xlink" x="0px" y="0px"
	 viewBox="0 0 1917.7 524.2" style="enable-background:new 0 0 1917.7 524.2;" xml:space="preserve">
<style type="text/css">
	.st0{fill:#000000;}
	.st1{fill:#000000;}
	.st2{fill:#000000;}
</style>
<g>
	<g>
		<path class="st0" d="M1295.9,349.2c-8.1,2.4-17.1,3.7-27.2,3.7c-9.1,0-17.8-1.6-26.2-4.7c-8.4-3.1-15.9-7.4-22.5-12.8
			c-6.6-5.4-12-11.9-16-19.4c-4-7.5-6.4-15.8-7.1-24.9h191.2c-0.8-35.1-2.5-59.3-8.6-76.2c-6.1-16.9-14.6-31.1-25.4-42.4
			c-10.8-11.3-23.7-19.9-38.5-25.7c-14.8-5.8-31-8.6-48.5-8.6c-18.9,0-36.4,3.2-52.6,9.7c-16.2,6.5-30.3,15.5-42.2,27.2
			c-11.9,11.7-21.2,25.8-28,42.4c-6.8,16.6-10.2,35-10.2,55.3c0,20.6,3.4,39,10.2,55.3c6.8,16.2,16.2,30,28.3,41.1
			c12.1,11.2,26.3,19.8,42.7,25.9c16.4,6.1,34.4,9.2,54,9.2c20.9,0,39.5-3.5,56-10.1C1308.4,385.8,1296.7,369,1295.9,349.2z
			 M1218.7,202.3c13.1-11.3,29.1-17,47.9-17c10.1,0,18.9,1.7,26.5,5c7.5,3.3,13.7,7.8,18.6,13.4c4.9,5.6,8.5,12,10.7,19.4
			c2.3,7.3,3.4,15,3.4,23h-128.9C1198.3,228.2,1205.6,213.6,1218.7,202.3z"/>
		<circle class="st0" cx="1348.6" cy="346.8" r="32.1"/>
	</g>
	<g>
		<path class="st0" d="M486.4,206.2c-3.3-12.6-9.2-23.9-17.6-34c-8.4-10.1-19.8-18.3-34.3-24.6c-14.5-6.3-32.9-9.4-55.3-9.4
			c-15.1,0-30.1,2.1-44.9,6.3c12.6,9.7,20.9,24.8,20.9,41.9c0,1.1-0.3,2.1-0.3,3.1c6.2-1.3,12.6-2,19.1-2c15.7,0,29.2,3.8,40.6,11.3
			c11.3,7.5,17,19.1,17,34.8v6.3c-19.6,0-39.5,1-60,2.9c-20.4,1.9-39,5.9-55.8,11.8c-16.8,5.9-30.5,14.5-41.1,25.7
			c-10.7,11.2-16,26.2-16,45c0,14.7,3.1,27,9.2,36.9c6.1,10,13.8,18,23,24.1c9.2,6.1,19.4,10.5,30.4,13.1c11,2.6,21.6,3.9,31.7,3.9
			c17.8,0,33.7-3.6,47.7-10.7c14-7.2,24.1-16.3,30.4-27.5h1.6v32h58.7v-153C491.4,231.4,489.7,218.8,486.4,206.2z M431.6,291.1
			c0,19.9-5.6,35.6-16.8,47.1c-11.2,11.5-27.6,17.3-49.2,17.3c-5.2,0-10.5-0.5-15.7-1.6c-5.2-1.1-10-2.8-14.1-5.2
			c-4.2-2.4-7.6-5.7-10.2-9.7c-2.6-4-3.9-9-3.9-14.9c0-9.4,3.1-16.8,9.4-22.3c6.3-5.4,14.1-9.6,23.6-12.6c9.4-3,19.7-4.9,30.9-5.8
			c11.2-0.9,21.8-1.3,32-1.3h14.1V291.1z"/>
		<path class="st0" d="M302.2,218.3c17.7,0,32.1-14.4,32.1-32.1s-14.4-32.1-32.1-32.1c-17.7,0-32.1,14.4-32.1,32.1
			S284.5,218.3,302.2,218.3z"/>
	</g>
	<g>
		<path class="st0" d="M227.2,202c-3.5-12.2-9-23-16.5-32.5c-7.5-9.4-17.1-17-28.8-22.8c-11.7-5.8-25.8-8.6-42.2-8.6
			c-9.4,0-18.2,1.2-26.2,3.7c-8,2.4-15.2,5.7-21.5,9.7c-6.3,4-11.8,8.6-16.5,13.6c-4.7,5.1-8.3,10.2-10.7,15.5h-1V74.3
			C54.9,81,44,85.1,32.1,85.1c-11.7,0-22.4-3.9-31.1-10.3v322.1h62.9V259.6c0-8.4,1.2-16.6,3.7-24.6c2.4-8,6.1-15.3,11-21.7
			c4.9-6.5,11-11.6,18.3-15.5c7.3-3.8,16.1-5.8,26.2-5.8c10.1,0,18.2,2.1,24.4,6.3c6.1,4.2,10.8,9.5,14.1,16
			c3.3,6.5,5.5,13.6,6.5,21.5c1,7.9,1.6,15.5,1.6,22.8v138.3h62.9V239.7C232.5,226.8,230.7,214.3,227.2,202z"/>
		<path class="st0" d="M32.1,64.2c17.7,0,32.1-14.4,32.1-32.1C64.2,14.4,49.8,0,32.1,0C14.4,0,0,14.4,0,32.1
			C0,49.8,14.4,64.2,32.1,64.2z"/>
	</g>
	<g>
		<path class="st0" d="M1598.9,322c8.7-6.2,19.3-10,30.8-10c12.1,0,23.1,4.2,32.1,11.1v-83.3c0-12.9-1.7-25.5-5.2-37.7
			c-3.5-12.2-9-23-16.5-32.5c-7.5-9.4-17.1-17-28.8-22.8c-11.7-5.8-25.8-8.6-42.2-8.6c-18.9,0-35.2,4.8-49,14.4
			c-13.8,9.6-23.5,20.7-29.1,33.3h-1.1v-40.3h-59.7v251.4h62.9V258.6c0-8.4,1.2-16.7,3.7-24.9c2.4-8.2,6-15.5,10.7-21.7
			c4.7-6.3,10.7-11.4,18.1-15.5c7.3-4,16.1-6,26.2-6c10.1,0,18.2,2.1,24.4,6.3c6.1,4.2,10.9,9.5,14.4,16c3.5,6.5,5.8,13.7,6.8,21.7
			c1,8,1.6,15.7,1.6,23V322z"/>
		<circle class="st0" cx="1629.7" cy="365" r="32.1"/>
	</g>
	<g>
		<path class="st0" d="M793.7,218.3c-5.9-16.1-14.3-30-25.1-41.9c-10.8-11.9-23.8-21.2-38.8-28c-15-6.8-31.4-10.2-49.2-10.2
			c-11.5,0-21.9,1.3-31.2,3.9c-9.3,2.6-17.6,5.9-24.9,10c-7.3,4-13.5,8.6-18.6,13.6c-5.1,5.1-9.2,10-12.3,14.9H592v-35.1h-60.2
			v304.3c8.9-6.6,19.7-10.7,31.6-10.7c11.7,0,22.4,3.9,31.2,10.4v-86.1h1c8,12.6,19.5,22.5,34.3,29.9c14.8,7.3,31.2,11,49,11
			c19.2,0,36.4-3.6,51.6-10.7c15.2-7.2,28.1-16.8,38.8-28.8c10.6-12,18.9-26.2,24.6-42.4c5.8-16.2,8.6-33.6,8.6-52.1
			C802.6,251.6,799.6,234.3,793.7,218.3z M745.5,299.5c-3,9.8-7.4,18.5-13.4,26.2c-5.9,7.7-13.5,14-22.5,18.9
			c-9.1,4.9-19.7,7.3-32,7.3c-11.5,0-21.8-2.4-30.9-7.1c-9.1-4.7-16.9-10.9-23.3-18.6c-6.5-7.7-11.4-16.3-14.7-25.9
			c-3.3-9.6-5-19.3-5-29.1c0-9.8,1.6-19.5,5-29.3c3.3-9.8,8.2-18.5,14.7-26.2c6.5-7.7,14.2-14,23.3-18.9c9.1-4.9,19.4-7.3,30.9-7.3
			c12.2,0,22.9,2.4,32,7.1c9.1,4.7,16.6,10.9,22.5,18.6c5.9,7.7,10.4,16.3,13.4,25.9c3,9.6,4.5,19.3,4.5,29.1
			C750,279.9,748.5,289.7,745.5,299.5z"/>
		<circle class="st1" cx="563.4" cy="492.1" r="32.1"/>
	</g>
	<g>
		<path class="st0" d="M1097.2,218.3c-5.9-16.1-14.3-30-25.1-41.9c-10.8-11.9-23.8-21.2-38.8-28c-15-6.8-31.4-10.2-49.2-10.2
			c-11.5,0-21.9,1.3-31.2,3.9c-9.3,2.6-17.6,5.9-24.9,10c-7.3,4-13.5,8.6-18.6,13.6c-5.1,5.1-9.2,10-12.3,14.9h-1.6v-35.1h-60.2
			v304.3c8.9-6.6,19.7-10.7,31.6-10.7c11.7,0,22.4,3.9,31.2,10.4v-86.1h1c8,12.6,19.5,22.5,34.3,29.9c14.8,7.3,31.2,11,49,11
			c19.2,0,36.4-3.6,51.6-10.7c15.2-7.2,28.1-16.8,38.8-28.8c10.6-12,18.9-26.2,24.6-42.4c5.8-16.2,8.6-33.6,8.6-52.1
			C1106.1,251.6,1103.1,234.3,1097.2,218.3z M1049,299.5c-3,9.8-7.4,18.5-13.4,26.2c-5.9,7.7-13.5,14-22.5,18.9
			c-9.1,4.9-19.7,7.3-32,7.3c-11.5,0-21.8-2.4-30.9-7.1c-9.1-4.7-16.9-10.9-23.3-18.6c-6.5-7.7-11.4-16.3-14.7-25.9
			c-3.3-9.6-5-19.3-5-29.1c0-9.8,1.6-19.5,5-29.3c3.3-9.8,8.2-18.5,14.7-26.2c6.5-7.7,14.2-14,23.3-18.9c9.1-4.9,19.4-7.3,30.9-7.3
			c12.2,0,22.9,2.4,32,7.1c9.1,4.7,16.6,10.9,22.5,18.6c5.9,7.7,10.4,16.3,13.4,25.9c3,9.6,4.5,19.3,4.5,29.1
			C1053.5,279.9,1052,289.7,1049,299.5z"/>
		<circle class="st2" cx="866.9" cy="492.1" r="32.1"/>
	</g>
	<g>
		<path class="st0" d="M1876.9,211.6c17.8,0,32.1-14.4,32.1-32.1s-14.4-32.1-32.1-32.1c-17.8,0-32.2,14.4-32.2,32.1
			S1859.2,211.6,1876.9,211.6z"/>
		<path class="st0" d="M1823.8,179.4c0-13.1,4.9-24.9,12.8-34.2h-132.2v50.4h122.2C1824.9,190.5,1823.8,185.1,1823.8,179.4z"/>
		<path class="st0" d="M1879.5,232.3c-0.9,0-1.7,0.3-2.6,0.3c-21.5,0-39.9-12.8-48.2-31.1l-103,110.5c1.5-0.1,2.9-0.4,4.4-0.4
			c20.7,0,38.5,12,47.2,29.3L1879.5,232.3z"/>
		<path class="st0" d="M1779.6,345.8c2.2,5.9,3.6,12.2,3.6,18.8c0,12.4-4.4,23.6-11.5,32.6h143.7v-51.4H1779.6z"/>
		<path class="st0" d="M1730.1,332.4c-17.8,0-32.1,14.4-32.1,32.2c0,17.8,14.4,32.1,32.1,32.1c17.8,0,32.1-14.4,32.1-32.1
			C1762.2,346.8,1747.8,332.4,1730.1,332.4z"/>
	</g>
</g>
</svg>
