<svg xmlns="http://www.w3.org/2000/svg" width="600" height="148" viewBox="0 0 600 148">
  <defs>
    <style>
      .cls-1 {
        fill-rule: evenodd;
      }
    </style>
  </defs>
  <path class="cls-1" d="M139.613,95.844c0.063,16.619,8.431,30.858,24.787,30.858,14.272,0,18.574-6.38,21.676-13.484h26.689c-4.049,13.64-16,34.595-49.1,34.595-35.7,0-50.892-27.373-50.892-55.985,0-33.828,17.311-58.892,52.029-58.892,37.031,0,49.477,27.647,49.477,53.7a73.745,73.745,0,0,1-.363,9.2H139.613Zm47.921-16.876c-0.215-14.554-6.677-26.568-22.86-26.568-16.2,0-22.961,11.183-24.419,26.568h47.279ZM85.914,35.5C74,72.344,62.906,105.355,59.947,121.49H59.736c-2.57-13.366-12.011-46.225-23.95-85.991H0c5.019,0,9.146,5.462,9.689,7.344l35.15,102.41H73.15L112.577,35.5H85.914ZM600,90.109C600,122.918,580.581,148,545.977,148c-33.4,0-53.122-24.4-53.122-57.375,0-33.515,20-57.976,54.5-57.976C579.269,32.649,600,55.549,600,90.109Zm-79.922.216c0,22.205,10.147,36.477,26.608,36.477,16.742,0,26.091-13.972,26.091-36.329,0-23.644-9.438-36.625-26.524-36.625C529.881,53.848,520.078,66.4,520.078,90.325Zm-113.157-34.7v-20.4H371.554c4.74,0,8.086,3.3,8.519,6.7,0.079,6.549.117,14.043,0.117,23.216v80.3h26.731V95.546c0-29.424,13.694-40.033,36.059-39.881V35.274C424.354,35.528,412.1,42.25,406.921,55.625Zm-151.542,0v-20.4H220.012c4.741,0,8.087,3.3,8.52,6.7,0.078,6.549.116,14.043,0.116,23.216v80.3h26.731V95.546c0-29.424,13.7-40.033,36.059-39.881V35.274C272.813,35.528,260.561,42.25,255.379,55.625ZM453.8,35.221V145.427h26.732V35.221H453.8ZM480.467,0H453.8V30.567c0.017,0,.032,0,0.049,0h0a26.594,26.594,0,0,0,26.61-26.528ZM364.984,55.665V35.22H342.411V35.195H315.68V35.22H297.942V55.665H315.68v61.687c0,18.956,7.287,29.576,27.381,29.576,5.873,0,13.6-.131,19.211-2.082V126.094a47.788,47.788,0,0,1-7.864.537c-9.416,0-12-4.007-12-13.159V55.665h22.573ZM342.278,4.034l0-4.034H315.619V30.566c0.017,0,.032,0,0.049,0A26.6,26.6,0,0,0,342.278,4.034Z"/>
</svg>
