<?xml version="1.0" encoding="utf-8"?>
<!-- Generator: Adobe Illustrator 25.4.1, SVG Export Plug-In . SVG Version: 6.00 Build 0)  -->
<svg version="1.1" id="Layer_1" xmlns="http://www.w3.org/2000/svg" xmlns:xlink="http://www.w3.org/1999/xlink" x="0px" y="0px"
	 viewBox="0 0 1736.6 419" style="enable-background:new 0 0 1736.6 419;" xml:space="preserve">
<style type="text/css">
	.st0{fill:#000000;}
	.st1{fill:#000000;}
</style>
<g>
	<path class="st0" d="M1644.7,170.2c17,7.1,31.9,16.6,44.5,28.4c12.6,11.9,22.5,25.7,29.6,41.6c7.1,15.9,10.6,32.6,10.6,50.2
		c0,18-3.5,34.9-10.6,50.8c-7.1,15.9-16.9,29.8-29.6,41.6c-12.6,11.9-27.5,21.2-44.5,28.1c-17,6.9-35.5,10.3-55.4,10.3
		c-19.9,0-38.4-3.4-55.4-10.3c-17-6.9-31.9-16.3-44.5-28.1c-12.6-11.9-22.5-25.7-29.6-41.6c-7.1-15.9-10.6-32.8-10.6-50.8
		c0-17.6,3.5-34.3,10.6-50.2c7.1-15.9,16.9-29.8,29.6-41.6c12.6-11.9,27.5-21.3,44.5-28.4c17-7.1,35.5-10.6,55.4-10.6
		C1609.2,159.6,1627.6,163.2,1644.7,170.2z M1624.3,403.4c8.4-7.1,14.6-16.4,18.7-27.8c4-11.5,6.5-24.7,7.5-39.6
		c1-14.9,1.4-30,1.4-45.4c0-15.3-0.5-30.3-1.4-45.1c-1-14.7-3.4-27.9-7.5-39.3c-4-11.5-10.2-20.8-18.7-27.9
		c-8.4-7.1-20.1-10.6-35-10.6c-14.9,0-26.6,3.5-35,10.6c-8.4,7.1-14.6,16.4-18.7,27.9c-4,11.5-6.5,24.6-7.5,39.3
		c-1,14.7-1.4,29.8-1.4,45.1c0,15.3,0.5,30.4,1.4,45.4c1,14.9,3.4,28.1,7.5,39.6c4,11.5,10.2,20.8,18.7,27.8
		c8.4,7.1,20.1,10.6,35,10.6C1604.2,414,1615.9,410.4,1624.3,403.4z"/>
	<path class="st0" d="M997.7,299c-23.5,0-42.5,19-42.5,42.5c0,18.8,12.2,34.7,29.1,40.3c0,0,0,0,0,0c0.2,0,0.3,0.1,0.4,0.1
		c2.5,0.8,5,1.3,7.6,1.7c4.7,0.8,6.3,3.2,6,6.4c-0.7,4.9-6.3,11.4-13.3,15.4c-10.5,5.7-23.5,8.6-38.8,8.6
		c-17.2,0-30.6-3.6-40.2-10.9c-9.6-7.3-16.8-16.6-21.8-27.9c-5-11.3-8-23.9-9.2-37.9c-1.2-14-1.7-27.9-1.7-41.6v-25.8h169.4
		c0-19.5-3.4-36.3-10.3-50.2c-6.9-14-15.7-25.3-26.4-34.2c-10.7-8.8-22.8-15.3-36.2-19.5c-13.4-4.2-26.8-6.3-40.2-6.3
		c-18.8,0-36.3,3.7-52.5,11.2c-16.3,7.5-30.4,17.2-42.5,29.3c-12.1,12.1-21.5,25.9-28.4,41.6c-6.9,15.7-10.3,31.8-10.3,48.2
		c0,20.7,3.6,39.1,10.9,55.4c7.3,16.3,17.3,30.1,30.1,41.3c12.8,11.3,27.8,19.9,45.1,25.8c17.2,5.9,35.8,8.9,55.7,8.9
		c16.8,0,31.2-2.4,43.1-7.2c11.9-4.8,21.8-10.7,29.9-17.8c5.2-4.5,9.5-9.4,13.3-14.4c0.1-0.2,0.3-0.4,0.4-0.6
		c0.6-0.8,1.2-1.6,1.8-2.4c2.2-3.1,4.3-6.5,5.9-10.1c0.1-0.1,0.1-0.3,0.1-0.4c1.5-2.9,2.8-5.8,3.9-8.5c0.2-0.5,0.5-1,0.7-1.5
		c0.8-1.8,1.4-3.7,2-5.7c0.1-0.4,0.3-0.8,0.4-1.2c0-0.1-0.1-0.1-0.1-0.2c0.1-0.2,0.1-0.5,0.1-0.7c0-0.2,0.1-0.3,0.2-0.5l-0.1,0
		c0.6-2.8,1-5.7,1-8.7C1040.3,318,1021.2,299,997.7,299z M875.4,230.5c0.9-10.9,3.2-21.1,6.6-30.4c3.4-9.4,8.7-17.1,15.8-23.3
		c7.1-6.1,17.1-9.2,30.1-9.2c9.2,0,16.4,2.1,21.5,6.3c5.2,4.2,8.9,9.4,11.2,15.5c2.3,6.1,3.6,12.3,4,18.4c0.4,6.1,0.6,11.3,0.6,15.5
		v38.5h-91.9C873.8,251.9,874.4,241.4,875.4,230.5z"/>
	<g>
		<polygon class="st0" points="1405.5,405.9 1405.5,167.7 1318,167.7 1318,175.7 1335.4,175.7 1335.4,405.9 1318,405.9 1318,414 
			1422.9,414 1422.9,405.9 		"/>
		<path class="st1" d="M1357.7,85.6C1357.7,85.7,1357.7,85.7,1357.7,85.6c0.1,0.1,0.2,0.1,0.4,0.1c2.5,0.8,5,1.3,7.6,1.7
			c9.8,1.6,6.6,10.8-1.2,17.8c-1.7,1.5-0.1,4.2,2,3.4c12.2-4.1,33.7-19.9,43.6-46.3c0.8-1.8,1.4-3.7,2-5.7c0.1-0.4,0.3-0.8,0.4-1.2
			c0-0.1-0.1-0.1-0.1-0.2c0.8-3.2,1.2-6.6,1.2-10c0-23.5-19-42.5-42.5-42.5c-23.5,0-42.5,19-42.5,42.5
			C1328.6,64.1,1340.8,80,1357.7,85.6z"/>
	</g>
	<g>
		<polygon class="st0" points="275.2,405.9 143.7,236.6 138.2,229.7 89.8,273.9 86.9,273.9 86.9,0 0,0 0,8 16.8,8 16.8,405.9 
			0,405.9 0,414 101.4,414 101.4,405.9 86.9,405.9 86.9,281.9 89.8,281.9 186.8,405.9 145.5,405.9 145.5,414 297.6,414 297.6,405.9 
					"/>
		<path class="st0" d="M200,251C200,251,199.9,251,200,251c0.1,0.1,0.2,0.1,0.4,0.1c2.5,0.8,5,1.3,7.6,1.7
			c9.8,1.6,6.6,10.8-1.2,17.8c-1.7,1.5-0.1,4.2,2,3.4c12.2-4.1,33.7-19.9,43.6-46.3c0.8-1.8,1.4-3.7,2-5.7c0.1-0.4,0.3-0.8,0.4-1.2
			c0-0.1-0.1-0.1-0.1-0.2c0.8-3.2,1.2-6.6,1.2-10c0-23.5-19-42.5-42.5-42.5c-23.5,0-42.5,19-42.5,42.5
			C170.9,229.5,183.1,245.4,200,251z"/>
	</g>
	<path class="st0" d="M527.6,405.9c0-0.4,0-165.3,0-165.3c0-16.1-2.8-29.4-8.3-39.9c-5.6-10.5-13-18.9-22.4-25
		c-9.4-6.1-20.5-10.3-33.3-12.6c-0.7-0.1-1.4-0.2-2.1-0.3l0-0.1c-47.7-10.1-77-3.1-89.1,0.1c-13.3,3.6-35,13.6-48.4,34.8
		c-1.2,1.6-5.3,8.9-7,15.9c-5.3,22.9,9.9,45.5,32.9,50.3c23,4.8,45.5-9.9,50.3-32.9c3.8-18.4-4.8-36.5-20.2-45.4c0,0,0,0,0,0
		c-0.2-0.1-0.3-0.1-0.4-0.2c-2.2-1.3-4.6-2.3-7.1-3.2c-6.8-2.6-5.9-9.1-0.3-12.4c6.3-3.7,24.9-7.5,54.6-4.4v0
		c10.5,1.1,19.1,5.8,23.4,12.9c5,8.4,7.5,17.8,7.5,28.1v81.9l-53.4,0.1c-11,0-32.7,1-49.7,6.3c-9.1,2.9-17,7.5-24.1,12.6
		c-7.1,5.2-12.8,11.5-17.2,18.9c-4.4,7.5-6.6,19-6.6,30.1c0,10.7,2.5,21.8,7.5,29.3c5,7.5,12.6,13.3,20.5,17.9
		c15.6,9.2,47.1,10.5,56.3,10.5c1.7,0,3.4,0,5.2,0v0h91.6h23h33.3v-8.1H527.6z M457.5,405.5c-0.2,0-31.7,0-36.7,0
		c-8.8,0-19.2-1.6-24.2-5.6c-5-4-8.7-8.9-11.2-14.6c-2.5-5.7-4-11.7-4.6-17.8c-0.6-6.1-0.9-11.5-0.9-16.1c0-11.5,1.8-28.5,5.5-35.7
		c0.4-0.7,0.8-1.5,1.3-2.3c6.7-10.8,19-17,31.8-17h39V405.5z"/>
	<path class="st0" d="M1295.6,213.6c-1.6-7.1-5.8-14.3-7-15.9c-13.4-21.2-36.5-32.6-48.4-34.8c-34.6-6.4-63-1.5-79.5,4.8h-82.7v8
		h16.3v230.2h-16.3v8h110.6v-8h-24.3l-1.1-231.8c21.5-8.9,58.8-10.5,77.1-4.4c6.2,2,6.5,9.8-0.3,12.4c-2.5,0.9-4.9,1.9-7.1,3.2
		c-0.1,0.1-0.3,0.1-0.4,0.2c0,0,0,0,0,0c-15.4,9-24.1,27-20.2,45.4c4.8,23,27.3,37.7,50.3,32.9
		C1285.7,259.1,1300.9,236.4,1295.6,213.6z"/>
	<path class="st0" d="M687,231c4.8,23,27.3,37.7,50.3,32.9c23-4.8,38.2-27.5,32.9-50.3c-1.6-7.1-5.8-14.3-7-15.9
		c-13.4-21.2-33.4-31.8-48.4-34.8c-19.8-3.9-37.6-3.9-52.3-2l0-162.4H656c0,0-9.1,46.6-63.4,46.6v129.7c-16.9,1.7-34.4,0.8-45.2-2.8
		c-0.3-0.1-0.5-0.3-0.8-0.4v7c0.3,0.1,0.6,0.2,0.9,0.2c16.6,3.3,31.8,3.8,45,2.8v170.9c0,6.9,0.4,14.4,1.1,22.4
		c0.8,8,3.7,15.5,8.9,22.4c5.2,6.9,13.2,12.6,24.1,17.2c10.9,4.6,26.3,6.9,46.2,6.9c7.3,0,14.9-0.7,23-2c8-1.4,15.6-4.1,22.7-8.3
		c7.1-4.2,13.4-10.2,18.9-18.1c5.5-7.8,9.5-18.3,11.8-31.3l-8.6-1.7c-1.5,5.7-3.5,11.7-6,17.8c-2.5,6.1-5.7,11.6-9.5,16.4
		c-3.8,4.8-8.3,8.7-13.5,11.8c-5.2,3.1-11.4,4.6-18.7,4.6c-6.5,0-11.8-1.1-15.8-3.4c-4-2.3-7.1-5.5-9.2-9.5c-2.1-4-3.5-8.5-4.3-13.5
		c-0.8-5-1.1-10.3-1.1-16.1l0-200.2c19-2.8,40.1-2.2,52.5,1.9c6.2,2,6.5,9.8-0.3,12.4c-2.5,0.9-4.9,1.9-7.1,3.2
		c-0.1,0.1-0.3,0.1-0.4,0.2c0,0,0,0,0,0C691.9,194.5,683.2,212.6,687,231z"/>
</g>
</svg>
