<svg xmlns="http://www.w3.org/2000/svg" width="150.84" height="262" viewBox="0 0 150.84 262">
  <defs>
    <style>
      .cls-1 {
        fill-rule: evenodd;
        opacity: 0.1;
      }
    </style>
  </defs>
  <path class="cls-1" d="M1615.22,2850.64c-0.71-5.96-3.81-11.57-8.96-16.21-3.13-2.82-9.47-7.7-16.86-8.72a23.512,23.512,0,0,0-3.16-.21,33.975,33.975,0,0,0-15.73,4.37c-4.29,2.27-7.89,5.42-11.38,8.47-1.61,1.41-3.29,2.87-5.01,4.23a109.708,109.708,0,0,1-40.71,19.74,80.175,80.175,0,0,1-11.14,2.08,51.757,51.757,0,0,1-5.68.37,26.625,26.625,0,0,1-4.25-.32c-0.31-.05-0.62-0.1-0.92-0.17,3.21-8.38.11-12.05-3.12-13.66a10.486,10.486,0,0,0-4.49-1.21,5.283,5.283,0,0,0-2.61.64c-1.73.98-2.58,3.07-2.27,5.6,0.57,4.51,4.06,8.24,9.42,10.11-0.44.89-.89,1.72-1.25,2.38a67.849,67.849,0,0,1-7.2,10.43c-4.28,5.18-7.68,9.72-10.32,15.06a46.779,46.779,0,0,0-5.19,19.55,33.771,33.771,0,0,0,5.52,19.32c0.81,1.27,1.7,2.54,2.56,3.77,2.78,3.98,5.65,8.1,6.49,12.89a13.518,13.518,0,0,1-1.7,9.41,43.788,43.788,0,0,1-3.17,4.49c-0.76.99-1.55,2.02-2.28,3.09a26.89,26.89,0,0,0-4.35,9.91c-0.3,1.65-.67,5.63,2.32,7.1a7,7,0,0,0,3.06.57c0.16,0,.33,0,0.49-0.01h0.42a6.984,6.984,0,0,1,3.84.89c3.26,1.96,4.67,6.11,5.22,8.41a29.29,29.29,0,0,1,.24,10.84,17.838,17.838,0,0,0,.84,9.77,18.3,18.3,0,0,0,1.25,2.32,14.5,14.5,0,0,1,1.24,2.32,8.474,8.474,0,0,1,.4,2.75,10.494,10.494,0,0,0,.41,2.95c0.84,2.58,2.72,4.64,4.53,6.62,0.46,0.5.89,0.97,1.3,1.45,3.14,3.63,4.63,8.01,6.21,12.65,0.81,2.35,1.64,4.79,2.7,7.1,2.46,5.33,5.56,8.97,9.48,11.13,3.84,2.11,8.72,3.18,14.51,3.18,0.84,0,1.71-.02,2.58-0.07a51.093,51.093,0,0,0,19.08-5.02,74.366,74.366,0,0,0,30.42-27.22c7.94-12.47,10.76-27.1,12.62-41.04,0.18-1.32.35-2.66,0.53-4.07a44.256,44.256,0,0,1,3.42,9.03c1.68,6.3,2.19,13.56,1.6,22.85-0.45,6.91-1.48,13.9-2.48,20.66-1.33,8.97-2.7,18.24-2.72,27.51a74.465,74.465,0,0,0,.53,10.15,15.144,15.144,0,0,0,3.28,8.24,1.053,1.053,0,0,0,.81.39,1.145,1.145,0,0,0,1.02-.68,1.117,1.117,0,0,0-.17-1.21c-2.19-2.55-2.72-6.02-2.96-9.38a102.291,102.291,0,0,1-.21-10.74,217.483,217.483,0,0,1,2.59-23.6l0.35-2.35c2.13-14.4,4.33-29.29.28-43.35a43.879,43.879,0,0,0-4.89-11.23c0.53-4.43,1.03-8.92,1.51-13.28l0.06-.54c0.69-6.31,1.21-13.09.27-19.89-0.98-7.15-3.57-13.13-7.69-17.78-3.72-4.19-8.85-6.69-13.72-6.69a13.655,13.655,0,0,0-2.64.25c-5.4,1.04-9.82,5.84-11.25,12.23-1.17,5.17-.69,11.07,1.4,17.54a31.6,31.6,0,0,0,3.63,7.93,23.879,23.879,0,0,0,6.17,6.1,63.4,63.4,0,0,0,6.69,3.91,43.386,43.386,0,0,1,9.09,5.85,25.985,25.985,0,0,1,4.15,4.89c-1.53,13.4-3.35,26.42-8.5,38.32a71.626,71.626,0,0,1-26,30.55c-9.25,6.15-19.41,9.54-28.59,9.54a35.826,35.826,0,0,1-8.96-1.12,18.362,18.362,0,0,1-11.32-8.3,51.226,51.226,0,0,1-4.54-10.59,71.9,71.9,0,0,0-2.97-7.76,31.8,31.8,0,0,0-5.23-7.31c-0.3-.34-0.6-0.69-0.9-1.04a14.071,14.071,0,0,1-2.93-4.47,9.64,9.64,0,0,1-.32-2.51,9.8,9.8,0,0,0-.43-3.04,14.561,14.561,0,0,0-1.42-2.75c-0.35-.56-0.67-1.1-0.95-1.66a12.487,12.487,0,0,1-1.27-5.27,36.65,36.65,0,0,1,.37-4.79,35.561,35.561,0,0,0,.37-5.3c-0.17-6.3-2.46-13.82-8.36-15.99a10.271,10.271,0,0,0-3.71-.52h-0.72c-1.56,0-2.42-.3-2.87-1-0.65-1.02-.72-2.67-0.18-4.79a27.819,27.819,0,0,1,2.16-5.43,35.49,35.49,0,0,1,3.89-5.81c2.28-2.97,4.64-6.04,5.33-9.94,1.16-6.52-2.12-12.47-5.48-17.42-0.46-.69-0.94-1.37-1.41-2.06-1.33-1.9-2.69-3.87-3.84-5.91a30.218,30.218,0,0,1-3.41-9.59,38.715,38.715,0,0,1,2.42-20.13,60.284,60.284,0,0,1,10.73-17.76,81.242,81.242,0,0,0,6.87-9.12,52.75,52.75,0,0,0,3.43-6.13c0.03,0.01.06,0.01,0.09,0.02a30.378,30.378,0,0,0,6.45.65,64.707,64.707,0,0,0,13.43-1.75,115.4,115.4,0,0,0,20.86-6.73,105.819,105.819,0,0,0,19.6-10.84,107.8,107.8,0,0,0,8.81-6.94c0.66-.57,1.31-1.16,1.94-1.73a53.66,53.66,0,0,1,5.77-4.75c4.33-2.94,11.08-6.48,18.6-6.56h0.2c6.95,0,13.25,3.99,17.31,7.34,3.8,3.14,8.52,8.42,9.39,15.73a1.152,1.152,0,0,0,1.16,1.02h0a1.119,1.119,0,0,0,.83-0.36A1.049,1.049,0,0,0,1615.22,2850.64Zm-131.21,10.04c-1.82-1.75-3.39-4.63-2.79-7.09a2.347,2.347,0,0,1,2.62-1.87,7.712,7.712,0,0,1,3.03.7,5.629,5.629,0,0,1,3.41,3.72c0.54,2.08.21,4.56-1.01,7.57A13.622,13.622,0,0,1,1484.01,2860.68Zm103.2,118.79c-2.94-2.86-6.57-4.8-10.07-6.67-1.73-.92-3.51-1.88-5.17-2.92a22.989,22.989,0,0,1-6.71-6.07,28.259,28.259,0,0,1-3.62-7.83c-2.1-6.57-2.45-12.38-1.04-17.29,1.66-5.77,6.3-9.65,11.54-9.65a11.633,11.633,0,0,1,1.85.15c5.71,0.91,10.85,5.2,14.11,11.76,5.28,10.62,3.77,22.9,2.3,34.78-0.18,1.53-.38,3.11-0.55,4.63l-0.21,1.82A27.68,27.68,0,0,0,1587.21,2979.47Z" transform="translate(-1464.38 -2825.5)"/>
</svg>
