<svg xmlns="http://www.w3.org/2000/svg" width="212.938" height="267" viewBox="0 0 212.938 267">
  <defs>
    <style>
      .cls-1 {
        fill: #094535;
        fill-rule: evenodd;
        opacity: 0.2;
      }
    </style>
  </defs>
  <path class="cls-1" d="M46.15,682.4a1.143,1.143,0,0,1,1.129-1.04,1.208,1.208,0,0,1,.239.024,25.789,25.789,0,0,0,5.218.543h0c16.844,0,30.232-17.283,37.142-33.457,2.427-5.681,4.4-11.715,6.314-17.55,3.812-11.638,7.753-23.673,15.5-33.73a40.68,40.68,0,0,1,23.376-15.349,36.669,36.669,0,0,1,7.994-.869c7.072,0,14.576,1.882,23.615,5.921,2.928,1.309,5.85,2.739,8.675,4.122,2.166,1.06,4.406,2.156,6.627,3.187l0.293,0.136c5.043,2.341,10.257,4.762,15.632,5.448a18.864,18.864,0,0,0,2.391.153,16.468,16.468,0,0,0,10.511-3.606c4.166-3.375,6.221-8.231,7.212-11.711a25.365,25.365,0,0,0,.536-7.434c-0.019-.8-0.039-1.625-0.035-2.422l0-.82c0.012-3.583.024-7.288,1.2-10.68,0.859-2.474,2.523-3.951,4.451-3.951a4.3,4.3,0,0,1,1.484.277c2.962,1.09,4.843,4.441,6.088,6.659a69.423,69.423,0,0,1,4.791,10.959,71.751,71.751,0,0,1,2.645,8.944c2.154,10.135,2.041,20.592,1.931,30.7-0.041,3.718-.082,7.561-0.01,11.321,0.075,3.861.263,7.24,0.575,10.33l0.032,0.32a27.454,27.454,0,0,0,1.5,7.621c1.6,3.941,4.477,7.325,7.255,10.6l0.308,0.364c0.328,0.387.677,0.79,1.039,1.208,4.09,4.728,10.271,11.873,5.614,18.408-1.928,2.705-4.949,3.825-7.87,4.908-0.733.271-1.425,0.528-2.1,0.81a12.408,12.408,0,0,0-5.121,3.471c-1.362,1.688-2.061,3.906-2.2,6.982-0.082,1.852-.01,3.75.061,5.587,0.036,0.931.072,1.894,0.089,2.844a32.542,32.542,0,0,1-.889,8.143c-0.735,3.164-1.616,6.338-2.468,9.406-0.986,3.554-2.006,7.228-2.8,10.884a59.754,59.754,0,0,0-1.393,9.492c-0.054.994-.082,2.011-0.108,3-0.037,1.334-.074,2.714-0.177,4.078-0.279,3.7-1.139,8.991-5.372,12.228a10.564,10.564,0,0,1-6.576,2.148,18.167,18.167,0,0,1-6.293-1.272,64.272,64.272,0,0,1-12.1-6.626l-0.648-.418q-0.906-.583-1.809-1.161a135.552,135.552,0,0,1-12.026-8.336c-3.079-2.479-6.091-5.125-9-7.684-1.932-1.7-3.931-3.453-5.926-5.14-2.305-1.949-4.76-3.807-7.134-5.6-2.556-1.936-5.2-3.937-7.682-6.068A39.317,39.317,0,0,1,147,704.553c-0.659-1.486-1.261-3.027-1.843-4.516a53.716,53.716,0,0,0-4-8.672,9.936,9.936,0,0,0-.088,4.35,36.409,36.409,0,0,0,2.15,7.357c1.44,3.731,3.173,7.437,4.849,11.021,0.444,0.951.889,1.9,1.327,2.852,2.519,5.452,4.449,11.695-.328,16.659-3.6,3.742-8.67,4.439-13.573,5.114-0.934.128-1.816,0.249-2.692,0.392-10.907,1.778-22.4,10.333-22.757,21.57-0.2,6.227,2.951,12.252,5.715,16.8a83.378,83.378,0,0,0,12.592,15.667A114.851,114.851,0,0,0,158,814.731a90.127,90.127,0,0,0,24.275,8.574,44.8,44.8,0,0,0,7.907.769c6.385,0,11.328-1.773,14.692-5.27a20.131,20.131,0,0,0,5.185-12.623c0.252-4.829-1.343-10.011-4.743-15.4-5.524-8.759-14.434-16.787-25.088-22.6-13.4-7.316-26.135-11.026-37.857-11.026a52.3,52.3,0,0,0-16.486,2.636,1.134,1.134,0,0,1-.353.057,1.1,1.1,0,0,1-1.076-.95,1.111,1.111,0,0,1,.765-1.255A55.213,55.213,0,0,1,142.257,755a74.368,74.368,0,0,1,28.693,6.257c12.68,5.322,23.069,12.466,30.877,21.233,4.586,5.151,7.611,10.089,9.245,15.1a23.676,23.676,0,0,1-.39,16.016,18.944,18.944,0,0,1-7.842,9.665,23.939,23.939,0,0,1-11.92,3.044q-0.42.008-.841,0.008c-9.857,0-19.608-3.628-26.085-6.357a116.1,116.1,0,0,1-27.852-16.8c-12.855-10.391-21.352-20.728-25.976-31.6-2.675-6.291-3.059-12.08-1.14-17.208,1.793-4.795,5.533-9.119,10.814-12.5a33.58,33.58,0,0,1,8.26-4,44.913,44.913,0,0,1,6.984-1.344c0.775-.107,1.577-0.217,2.358-0.339,2.8-.438,5.994-1.056,8.539-2.855a8.657,8.657,0,0,0,3.723-8.633,29.829,29.829,0,0,0-2.948-8.068c-0.168-.353-0.337-0.705-0.5-1.056-0.693-1.469-1.365-2.976-2.015-4.431q-0.432-.969-0.867-1.935l-0.191-.425c-2.007-4.444-4.282-9.481-4.533-14.592a7.911,7.911,0,0,1,1.58-5.7,1.057,1.057,0,0,1,.814-0.382,1.211,1.211,0,0,1,.961.5,45.907,45.907,0,0,1,5.206,10.54c0.6,1.534,1.219,3.119,1.9,4.629a32.306,32.306,0,0,0,4.7,7.762,50.426,50.426,0,0,0,6.234,6.068c2.28,1.914,4.7,3.749,7.036,5.523,2.479,1.88,5.041,3.824,7.462,5.88,1.89,1.6,3.781,3.265,5.61,4.871,2.956,2.6,6.013,5.283,9.129,7.783A129.817,129.817,0,0,0,200.8,749.6q1.186,0.757,2.375,1.522l0.517,0.334c3.889,2.51,7.91,5.106,12.309,6.526a15.054,15.054,0,0,0,4.614.836,8.991,8.991,0,0,0,1.781-.172,8.9,8.9,0,0,0,5.424-3.774c2.348-3.423,2.455-7.824,2.559-12.081q0.015-.637.033-1.265a80.072,80.072,0,0,1,3.028-18.1c0.431-1.626.888-3.272,1.329-4.863,0.47-1.693.955-3.443,1.41-5.168q0.138-.524.279-1.049a38.32,38.32,0,0,0,1.562-8.148c0.07-1.676-.023-3.38-0.121-5.184-0.191-3.506-.389-7.131.7-10.514,1.561-4.835,5.816-6.98,8.881-8.174,0.384-.15.775-0.3,1.168-0.445,3.277-1.233,6.664-2.509,7.853-5.871,1.136-3.215-.76-6.529-2.539-9.057a74.048,74.048,0,0,0-4.747-5.837c-3.936-4.528-8.006-9.211-9.095-15.221-1.62-8.947-1.463-18.192-1.311-27.133,0.079-4.609.16-9.375-.007-14.01A84.035,84.035,0,0,0,236.49,584.5a87.771,87.771,0,0,0-2.906-8.815,52.061,52.061,0,0,0-5.064-10.409c-2.083-3.1-3.508-3.747-4.336-3.747a1.693,1.693,0,0,0-.947.3,5.174,5.174,0,0,0-1.65,3.114,28.847,28.847,0,0,0-.708,5.629c-0.092,1.858-.086,3.758-0.081,5.6s0.011,3.766-.082,5.657a23.411,23.411,0,0,1-3.921,11.1A19.957,19.957,0,0,1,207,601.06a18.643,18.643,0,0,1-6.478,1.117,26.1,26.1,0,0,1-7.682-1.246,109.96,109.96,0,0,1-15.014-6.21c-1.274-.614-2.55-1.242-3.83-1.871-8.525-4.193-17.34-8.528-26.86-9.481-1.189-.119-2.4-0.18-3.6-0.18a36.718,36.718,0,0,0-24.486,9.34c-5.812,5.189-10.536,12.4-14.867,22.7-2.51,5.969-4.583,12.229-6.587,18.283-0.862,2.605-1.754,5.3-2.67,7.936a89.039,89.039,0,0,1-12.428,24.4c-6.723,9.013-14.124,14.788-22,17.165a27.014,27.014,0,0,1-7.817,1.152h0a28.007,28.007,0,0,1-5.673-.586A1.07,1.07,0,0,1,46.15,682.4Z" transform="translate(-46.156 -559.312)"/>
</svg>
