<svg id="Logo" xmlns="http://www.w3.org/2000/svg" width="87.813" height="60.906" viewBox="0 0 87.813 60.906">
  <defs>
    <style>
      .cls-1 {
        fill: #0b4d3c;
      }

      .cls-1, .cls-2 {
        fill-rule: evenodd;
      }

      .cls-2 {
        fill: #010101;
      }
    </style>
  </defs>
  <path id="fab." class="cls-1" d="M255.62,100h3.18v30h5.04V100h10.2v-0.78h-10.2V90.4c0-4.2,1.86-6.42,4.259-6.42,2.46,0,4.32,2.28,4.32,6.84,0,0.54,0,1.14-.06,1.74h5.1A9.33,9.33,0,1,0,258.8,92.5v6.72h-3.18V100Zm26.72,30.6c4.019,0,6.959-1.98,8.279-5.16V130h5.04V108.641c0-5.94-4.44-10.02-10.38-10.02s-10.439,4.08-10.439,9.72h5.1v-1.68c0-4.8,2.58-7.26,5.339-7.26,3,0,5.34,2.46,5.34,7.08v5.82h-7.8c-6,0-10.08,3.9-10.08,9.359C272.74,126.76,276.7,130.6,282.34,130.6Zm1.859-1.62c-3.779,0-6.3-3.18-6.3-7.56,0-4.8,2.7-8.339,7.259-8.339h5.46V121.3C290.619,125.74,287.8,128.98,284.2,128.98Zm36.46,1.62c8.76,0,14.76-6.96,14.76-16.019,0-9-6-15.96-14.76-15.96a13.627,13.627,0,0,0-13.2,9.24V83.8h-5.1V130h5.1v-8.64A13.627,13.627,0,0,0,320.659,130.6Zm-1.8-1.2c-6.36,0-11.639-6-11.639-14.819,0-8.76,5.279-14.82,11.639-14.82,6.54,0,11.34,6.06,11.34,14.82S325.4,129.4,318.859,129.4Zm21.341,1.2a3.21,3.21,0,1,0,0-6.42A3.21,3.21,0,1,0,340.2,130.6Z" transform="translate(-255.625 -83.188)"/>
  <path id="Skin_Science" data-name="Skin Science" class="cls-2" d="M263.576,144.084a3.168,3.168,0,0,0,1.5-.336,2.382,2.382,0,0,0,.96-0.876,2.2,2.2,0,0,0,.324-1.152,1.989,1.989,0,0,0-.36-1.254,2.222,2.222,0,0,0-.864-0.684,9.974,9.974,0,0,0-1.332-.45q-0.684-.192-1.062-0.342a1.663,1.663,0,0,1-.636-0.438,1.073,1.073,0,0,1-.258-0.744,1.209,1.209,0,0,1,.432-0.99,1.7,1.7,0,0,1,1.116-.354,1.79,1.79,0,0,1,1.176.366,1.3,1.3,0,0,1,.5.846h1.2a2.172,2.172,0,0,0-.846-1.56,3.029,3.029,0,0,0-1.926-.588,3.443,3.443,0,0,0-1.446.288,2.267,2.267,0,0,0-.978.816,2.152,2.152,0,0,0-.348,1.212,1.992,1.992,0,0,0,.354,1.242,2.136,2.136,0,0,0,.852.678,9.406,9.406,0,0,0,1.326.432,10.312,10.312,0,0,1,1.068.336,1.687,1.687,0,0,1,.66.456,1.137,1.137,0,0,1,.264.78,1.266,1.266,0,0,1-.45,1,1.815,1.815,0,0,1-1.23.39,1.744,1.744,0,0,1-1.242-.4,1.533,1.533,0,0,1-.486-0.99h-1.164a2.091,2.091,0,0,0,.384,1.206,2.47,2.47,0,0,0,1.026.816,3.577,3.577,0,0,0,1.482.294h0ZM274.128,144l-3.828-4.176,3.792-4.188h-1.38l-3.456,3.876v-3.876h-1.092V144h1.092v-3.816L272.7,144h1.428Zm1.276-8.364V144H276.5v-8.364H275.4Zm9.816-.012h-1.092v6.648l-4.392-6.648h-1.092V144h1.092v-6.66l4.392,6.66h1.092v-8.376Zm7.556,8.46a3.168,3.168,0,0,0,1.5-.336,2.382,2.382,0,0,0,.96-0.876,2.2,2.2,0,0,0,.324-1.152,1.989,1.989,0,0,0-.36-1.254,2.222,2.222,0,0,0-.864-0.684,9.974,9.974,0,0,0-1.332-.45q-0.684-.192-1.062-0.342a1.663,1.663,0,0,1-.636-0.438,1.073,1.073,0,0,1-.258-0.744,1.209,1.209,0,0,1,.432-0.99,1.7,1.7,0,0,1,1.116-.354,1.79,1.79,0,0,1,1.176.366,1.3,1.3,0,0,1,.5.846h1.2a2.172,2.172,0,0,0-.846-1.56,3.029,3.029,0,0,0-1.926-.588,3.443,3.443,0,0,0-1.446.288,2.267,2.267,0,0,0-.978.816,2.152,2.152,0,0,0-.348,1.212,1.992,1.992,0,0,0,.354,1.242,2.136,2.136,0,0,0,.852.678,9.406,9.406,0,0,0,1.326.432,10.312,10.312,0,0,1,1.068.336,1.687,1.687,0,0,1,.66.456,1.137,1.137,0,0,1,.264.78,1.266,1.266,0,0,1-.45,1,1.815,1.815,0,0,1-1.23.39,1.744,1.744,0,0,1-1.242-.4,1.533,1.533,0,0,1-.486-0.99h-1.164a2.091,2.091,0,0,0,.384,1.206,2.47,2.47,0,0,0,1.026.816,3.577,3.577,0,0,0,1.482.294h0Zm4.18-4.272a4.368,4.368,0,0,0,.552,2.2,3.978,3.978,0,0,0,1.506,1.518,4.188,4.188,0,0,0,2.118.546,4.327,4.327,0,0,0,2.388-.654,3.755,3.755,0,0,0,1.488-1.854H303.7a2.589,2.589,0,0,1-1,1.158,2.933,2.933,0,0,1-1.566.4,3.05,3.05,0,0,1-1.572-.408,2.853,2.853,0,0,1-1.092-1.158,4.074,4.074,0,0,1,0-3.5,2.853,2.853,0,0,1,1.092-1.158,3.05,3.05,0,0,1,1.572-.408,2.9,2.9,0,0,1,1.566.408,2.626,2.626,0,0,1,1,1.164h1.308a3.782,3.782,0,0,0-1.488-1.872,4.3,4.3,0,0,0-2.388-.66,4.152,4.152,0,0,0-2.118.552,4.01,4.01,0,0,0-1.506,1.53,4.4,4.4,0,0,0-.552,2.2h0Zm9.648-4.176V144H307.7v-8.364H306.6Zm7.74,0.888v-0.9h-4.5V144h4.5v-0.9h-3.408v-2.88h3.048v-0.9h-3.048v-2.8h3.408Zm8.316-.9h-1.092v6.648l-4.392-6.648h-1.092V144h1.092v-6.66l4.392,6.66h1.092v-8.376Zm1.256,4.188a4.368,4.368,0,0,0,.552,2.2,3.978,3.978,0,0,0,1.506,1.518,4.188,4.188,0,0,0,2.118.546,4.327,4.327,0,0,0,2.388-.654,3.755,3.755,0,0,0,1.488-1.854H330.66a2.589,2.589,0,0,1-1,1.158,2.933,2.933,0,0,1-1.566.4,3.05,3.05,0,0,1-1.572-.408,2.853,2.853,0,0,1-1.092-1.158,4.074,4.074,0,0,1,0-3.5,2.853,2.853,0,0,1,1.092-1.158,3.05,3.05,0,0,1,1.572-.408,2.9,2.9,0,0,1,1.566.408,2.626,2.626,0,0,1,1,1.164h1.308a3.782,3.782,0,0,0-1.488-1.872,4.3,4.3,0,0,0-2.388-.66,4.152,4.152,0,0,0-2.118.552,4.01,4.01,0,0,0-1.506,1.53,4.4,4.4,0,0,0-.552,2.2h0Zm14.148-3.288v-0.9h-4.5V144h4.5v-0.9h-3.408v-2.88H337.7v-0.9h-3.048v-2.8h3.408Z" transform="translate(-255.625 -83.188)"/>
</svg>
